<?xml version="1.0" encoding="utf-8"?>
<!-- Generator: Adobe Illustrator 26.3.1, SVG Export Plug-In . SVG Version: 6.00 Build 0)  -->
<svg version="1.1" id="a" xmlns="http://www.w3.org/2000/svg" xmlns:xlink="http://www.w3.org/1999/xlink" x="0px" y="0px"
	 viewBox="0 0 6231 1338.8" style="enable-background:new 0 0 6231 1338.8;" xml:space="preserve">
<style type="text/css">
	.st0{fill-rule:evenodd;clip-rule:evenodd;fill:#38CAB3;}
	.st1{fill:#ED2F2F;}
	.st2{fill:#DD281F;}
	.st3{fill:#EDEDED;}
	.st4{fill:#DDDDDD;}
</style>
<path class="st0" d="M1216.2,436.3H828.6c65.9,55,111.1,142.5,111.1,262.4c0,447-617.7,447-617.7,0c0-229.4,165.3-342.6,324.9-334.7
	h592.2l2.3-200.9l1426.6,3l61.3-106.2L631.5,60v0C315.7,60.1,0,273,0,698.7c0,853.4,1263.5,853.4,1263.5,0
	C1263.5,599.8,1246.4,512.3,1216.2,436.3L1216.2,436.3z"/>
<g>
	<path d="M1714.1,223.6v115.9h-274.8v115.9h197.9v115.9h-197.9v231.8h-138.3V223.6H1714.1L1714.1,223.6z"/>
	<path d="M2170.5,223.6v115.9h-274.8v115.9h197.9v115.9h-197.9v231.8h-138.3V223.6H2170.5z"/>
	<path d="M2626.8,223.6v115.9h-278.6v115.9h262.3v115.9h-262.3v115.9h278.6v115.9h-413.1V223.6H2626.8L2626.8,223.6z"/>
	<path d="M3162.9,803.1h-153.7l-154.7-250.8h-8.6v250.8h-142.2V223.6h273.8c40.3,0,74.1,11.3,101.4,33.9
		c27.2,22.6,40.8,51.3,40.8,86.1v102.7c0,29.8-10.3,55.2-30.8,76.2c-20.5,21-46.8,34.5-78.8,40.6L3162.9,803.1L3162.9,803.1z
		 M2967.9,455.4c5.1,0,9.4-1.4,13-4.1c3.5-2.8,5.3-6.6,5.3-11.6v-84.4c0-5-1.8-8.8-5.3-11.6c-3.5-2.8-7.9-4.1-13-4.1h-128.7v115.9
		H2967.9z"/>
	<path d="M3329.2,803.1H3187V223.6h142.2V803.1z"/>
	<path d="M3538.6,803.1H3406V223.6h139.3l135.5,307.1h7.7V223.6h132.6v579.5h-139.3l-135.5-305.5h-7.7L3538.6,803.1L3538.6,803.1z"
		/>
	<path d="M4303.4,383.4H4166v-31.5c0-5-1.8-9-5.3-12s-8.2-4.5-13.9-4.5h-101.8c-5.8,0-10.3,1.5-13.5,4.5c-3.2,3-4.8,7-4.8,12v323.7
		c0,10.5,6.1,15.7,18.3,15.7h101.8c5.8,0,10.4-1.4,13.9-4.1c3.5-2.8,5.3-6.6,5.3-11.6V571.3h137.4v231.8h-135.5v-27.3
		c-19.9,21-44.5,31.5-74,31.5h-63.4c-40.4,0-74.1-11.3-101.4-34c-27.2-22.6-40.8-51.3-40.8-86.1V340.3c0-22.6,6.2-43.2,18.7-61.7
		c12.5-18.5,29.6-33,51.4-43.5c21.8-10.5,45.8-15.7,72.1-15.7h131.6c41,0,74.8,11.5,101.4,34.4c26.6,22.9,39.9,51.7,39.9,86.5
		L4303.4,383.4L4303.4,383.4z"/>
	<path d="M4500.4,803.1h-168.1V658.2h168.1V803.1z"/>
	<path d="M4548.4,803.1V223.6h273.8c40.3,0,74.1,11.3,101.4,33.9c27.2,22.6,40.8,51.3,40.8,86.1v107.6c0,34.8-13.6,63.5-40.8,86.1
		c-27.2,22.6-61,34-101.4,34h-131.6v231.8L4548.4,803.1L4548.4,803.1z M4811.7,455.4c5.1,0,9.4-1.4,13-4.1c3.5-2.8,5.3-6.6,5.3-11.6
		v-84.4c0-5-1.8-8.8-5.3-11.6c-3.5-2.8-7.9-4.1-13-4.1h-125.9v115.9H4811.7z"/>
	<path d="M5466.9,803.1h-153.7l-154.7-250.8h-8.6v250.8h-142.2V223.6h273.8c40.3,0,74.1,11.3,101.4,33.9
		c27.2,22.6,40.8,51.3,40.8,86.1v102.7c0,29.8-10.3,55.2-30.8,76.2c-20.5,21-46.8,34.5-78.8,40.6L5466.9,803.1L5466.9,803.1z
		 M5271.9,455.4c5.1,0,9.4-1.4,13-4.1c3.5-2.8,5.3-6.6,5.3-11.6v-84.4c0-5-1.8-8.8-5.3-11.6c-3.5-2.8-7.9-4.1-13-4.1h-128.7v115.9
		H5271.9z"/>
	<path d="M5622.6,807.2c-40.4,0-74-11.3-100.9-34c-26.9-22.6-40.4-51.3-40.4-86.1V339.5c0-34.8,13.5-63.5,40.4-86.1
		c26.9-22.6,60.5-33.9,100.9-33.9h131.6c40.3,0,74,11.3,100.9,33.9c26.9,22.6,40.4,51.3,40.4,86.1v347.7c0,34.8-13.5,63.5-40.4,86.1
		c-26.9,22.6-60.5,34-100.9,34L5622.6,807.2L5622.6,807.2z M5739.8,691.3c12.2,0,18.2-5.2,18.2-15.7V351.1
		c0-10.5-6.1-15.7-18.2-15.7H5637c-5.1,0-9.3,1.4-12.5,4.1s-4.8,6.6-4.8,11.6v324.5c0,5,1.6,8.8,4.8,11.6s7.4,4.1,12.5,4.1H5739.8z"
		/>
</g>
<g id="_x31__hat">
	<g id="fabric">
		<g>
			<path class="st1" d="M6125.7,277.7c-2.4-2.3-92.9-17.2-96.2-17.6c-48.3-5.7-96.7-11.4-145-17c39.1,50.5,62.4,113.4,65.6,176.8
				l-528.6,33.3c-0.7-50.5,20.2-160.5,27.8-210.1c2.2-14.5,4.8-29.1,10.4-42.6c6.2-15.3,16-28.7,25.9-41.8
				c32-42.4,66.2-83,102.4-121.6c12.3-13.1,25.4-26.3,42.2-32.5c14.6-5.4,30.8-4.9,46.5-4.4c28.9,1,28.7,1.1,57.7,2.1
				c8,0.3,43.1,3.6,50.8,6.1c7,2.3,22.4,8.7,28.7,12.7c82.8,52.2,158.7,99.8,238.2,157.1c4,2.9,71.1,46.6,73.6,50.9"/>
		</g>
		<g>
			<path class="st2" d="M5888.8,385.8c2.4,12.6,3.8,23.2,3.9,30.9l57.4,3.4c-3.2-63.4-26.5-126.3-65.6-176.8
				c48.3,5.7,96.7,11.4,145,17c3.3,0.4,98.9,17,98.9,17c-0.2-0.2-87-25-87.2-25c-95.4-19.7-128.9-16.7-179.2-35.8l-49.6-59.2
				c-0.7-0.8-2,0-1.4,1c20.7,36.2,48.8,115,66,178.5"/>
		</g>
	</g>
	<g id="fur_ball">
		<g>
			<path class="st3" d="M6194.5,311.9c-3.8,11-10.7,20.9-19.8,28.2c-1.4-3.5-2.8-7.1-4.2-10.6c-13,3.7-23.8,14-28.1,26.8
				c-12.8-7.8-25.9-15.9-35.5-27.4c-9.6-11.6-15.2-27.6-10.7-41.9c-6.7,4-11.5,10.8-13.1,18.4c-6.7-11.3-8.2-25.5-4.2-38
				s13.6-23.1,25.6-28.4c-6.6-3.1-13.8-4.8-21-5.1c9.3-6.3,20.5-9.8,31.7-9.8c2-7.8,5.1-15.4,9.2-22.3c3.7,5.9,7.4,11.8,11.1,17.6
				c15.8-13.5,38.6-18.4,58.5-12.6c-3,4.1-6.1,8.2-9.1,12.4c28.6,7.9,49,38.3,45.5,67.7c-4.5-3.7-9.7-6.5-15.2-8.2
				c-2.5,14-5.9,27.9-10.2,41.5c-3.3-2.9-6.7-5.8-10-8.6"/>
		</g>
		<g>
			<path class="st4" d="M6106.9,328.9c-9.6-11.6-15.2-27.6-10.7-41.9c-6.7,4-11.5,10.8-13.1,18.4c-6.7-11.3-8.2-25.5-4.2-38
				c3.1-9.5,9.4-17.9,17.5-23.8c-2.5,8.4-4.4,17.1-5.4,25.8c5.9-3.9,12.1-7.4,18.5-10.3c-0.9,6.9-1.7,13.8-2.6,20.7
				c2-1.3,4.5-1.7,6.8-1.3c-3.1,10.5-1.1,22.1,3.6,31.9c4.7,9.9,12,18.3,19.6,26.2c6.1-14.8,22.9-21.6,38-26.9
				c1.1,2.9,2.1,5.8,3.2,8.6c5.6-8.9,12.2-17.2,19.7-24.6c3.6,7.7,5.4,16.1,5.4,24.6c-2.7-2.3-5.4-4.7-8.2-7l-0.8,0.3
				c-3.8,11-10.7,20.9-19.8,28.2c-1.4-3.5-2.8-7.1-4.2-10.6c-13,3.7-23.8,14-28.1,26.8C6129.6,348.5,6116.5,340.5,6106.9,328.9z"/>
		</g>
	</g>
	<g id="fur">
		<g>
			<path class="st3" d="M5409.4,393.6c0.7,8.9,3.8,17.5,8.7,24.7c10.2-26.5,27.1-49.9,48.5-67c3.8,5.9,7.5,11.8,11.3,17.6
				c78.7-86.1,213.8-103.4,308.9-39.6c-1.1-8.9-2.1-17.9-3.2-26.8c12.7,17.7,34.6,24.4,55.2,26.5c20.6,2.1,41.8,0.8,61.7,7.1
				c36.5,11.5,62.5,46.8,79,83.7c-9.4-2.2-18.7-4.4-28.1-6.7c6.7,8.8,15.8,16.7,21.5,26.3c6.5,11.1,8.3,24.5,6.6,37.3
				c-1.7,12.7-6.6,24.9-12.6,36.2c0.8-6.7-3.4-12.8-7.7-17.9c-0.9-1-1.8-2-2.7-3c-13.9,15.9-33.2,27.3-53.1,32.2
				c-34.1,8.5-69.7,2.2-104.3-4.1c-28-5.1-55.9-10.2-83.9-15.3c11.1,4.9,20.2,14.8,24.6,26.7c-43.5-10.3-87.3-20.7-131.8-21.1
				c-44.5-0.5-90.2,9.6-126.8,37c4.1,5.6,10.4,9.1,17,9.6c-32.4,21.2-89.3,10.7-107.8-29.2c-8-17.2-9.4-31.6-9.8-43.1
				C5379.8,451.4,5392.7,429.5,5409.4,393.6z"/>
		</g>
		<g>
			<path class="st4" d="M5418.1,418.3c9.6-25.1,25.4-47.4,45.2-64.1c-41.1,63.2-46.7,99.6-46.1,120.5c0.4,14.7,17.3,40.5,32,40.3
				c-3.9-10.8-5.5-18.2-4.1-29.6c12.2,14.6,33.4,18.3,52.2,15.6c18.8-2.7,36.3-10.8,54.5-16c38.4-11,80.3-9.2,117.6,5.2
				c-9.1-11.5-21.4-20.5-35.2-25.7c53.8,2.1,103.5,27.6,154.3,45.5c33.6,11.8,70.8,19.9,105.6,16.2c-31.3,5.5-63.7-0.1-95.2-5.8
				c-28-5.1-55.9-10.2-83.9-15.3c11.1,4.9,20.2,14.8,24.6,26.7c-43.5-10.3-87.3-20.7-131.8-21.1c-44.5-0.5-90.2,9.6-126.8,37
				c4.1,5.6,10.4,9.1,17,9.6c-32.4,21.2-89.3,10.7-107.8-29.2c-8-17.2-9.4-31.6-9.8-43.1c-0.9-33.5,12.1-55.4,28.7-91.3
				C5410.1,402.5,5413.2,411.2,5418.1,418.3z"/>
		</g>
	</g>
</g>
</svg>
